<svg xmlns="http://www.w3.org/2000/svg" fill="none" viewBox="0 0 75 75"><path fill="url(#a)" d="M1.2 63.1a4 4 0 0 1 0-5.7L57.4 1.2a4 4 0 0 1 5.7 0l10.7 10.7a4 4 0 0 1 0 5.7L17.6 73.8a4 4 0 0 1-5.7 0z"/><path fill="url(#b)" d="M11.9 1.2a4 4 0 0 1 5.7 0l56.2 56.2a4 4 0 0 1 0 5.7L63.1 73.8a4 4 0 0 1-5.7 0L1.2 17.6a4 4 0 0 1 0-5.7z"/><defs><linearGradient id="a" x1="0" x2="75" y1="37.5" y2="37.5" gradientUnits="userSpaceOnUse"><stop stop-color="#7aa3fa"/><stop offset="1" stop-color="#b5b9fa"/></linearGradient><linearGradient id="b" x1="0" x2="75" y1="37.5" y2="37.5" gradientUnits="userSpaceOnUse"><stop stop-color="#7aa3fa"/><stop offset="1" stop-color="#b5b9fa"/></linearGradient></defs></svg>