<svg xmlns="http://www.w3.org/2000/svg" viewBox="0 0 24 24"><path fill="url(#a)" d="M2 20v-2.8q0-.85.425-1.562T3.6 14.55q1.5-.75 3.113-1.15T10 13q.625 0 1.25.088t1.25.212v1.575q-1.125.55-1.812 1.45T10 18.675V20zm8-8q-1.65 0-2.825-1.175T6 8t1.175-2.825T10 4t2.825 1.175T14 8t-1.175 2.825T10 12z"/><path fill="url(#b)" d="M12 20v-1.4q0-.6.313-1.112t.887-.738q.9-.375 1.863-.562T17 16t1.938.188 1.862.562q.575.225.888.738T22 18.6V20zm5-5q-1.05 0-1.775-.725T14.5 12.5t.725-1.775T17 10t1.775.725.725 1.775-.725 1.775T17 15z"/><defs><linearGradient id="a" x1="0" x2="75" y1="37.5" y2="37.5" gradientUnits="userSpaceOnUse"><stop stop-color="#7aa3fa"/><stop offset="1" stop-color="#b5b9fa"/></linearGradient><linearGradient id="b" x1="75" x2="0" y1="37.5" y2="37.5" gradientUnits="userSpaceOnUse"><stop stop-color="#fec390"/><stop offset="1" stop-color="#fda7a0"/></linearGradient></defs></svg>
